<?xml version="1.0" standalone="no"?>
<!DOCTYPE svg PUBLIC "-//W3C//DTD SVG 20010904//EN"
 "http://www.w3.org/TR/2001/REC-SVG-20010904/DTD/svg10.dtd">
<svg version="1.0" xmlns="http://www.w3.org/2000/svg"
 width="189.000000pt" height="125.000000pt" viewBox="0 0 189.000000 125.000000"
 preserveAspectRatio="xMidYMid meet">
<metadata>
Created by potrace 1.15, written by Peter Selinger 2001-2017
</metadata>
<g transform="translate(0.000000,125.000000) scale(0.100000,-0.100000)"
fill="#000000" stroke="none">
<path d="M40 635 l0 -585 915 0 915 0 0 585 0 585 -915 0 -915 0 0 -585z
m1760 0 l0 -525 -850 0 -850 0 0 525 0 525 850 0 850 0 0 -525z"/>
<path d="M222 738 l3 -303 30 -60 c32 -65 93 -115 163 -135 66 -18 177 -23
244 -10 119 22 190 78 240 186 22 47 23 62 26 337 l4 287 -45 0 -45 0 -4 -277
c-5 -316 -11 -344 -82 -418 -83 -87 -249 -89 -337 -5 -62 59 -69 100 -69 422
l0 278 -66 0 -65 0 3 -302z"/>
<path d="M1299 1026 c-120 -34 -230 -129 -268 -231 -44 -118 -37 -257 19 -372
54 -109 153 -174 298 -195 96 -14 226 0 297 31 44 19 45 21 45 65 l0 45 -51
-35 c-184 -124 -398 -57 -475 149 -28 76 -26 231 5 309 29 76 96 149 163 179
103 45 243 22 314 -52 15 -16 31 -29 36 -29 4 0 8 26 8 58 l0 59 -37 12 c-55
19 -297 24 -354 7z"/>
</g>
</svg>
